<svg width="578" height="188" viewBox="0 0 578 188" fill="none" xmlns="http://www.w3.org/2000/svg">
<g clip-path="url(#clip0_301_48)">
<path d="M106.457 2.88269C98.692 2.88269 64.3126 3.38402 55.7334 5.01336C52.1014 5.51469 51.4125 6.58002 51.4125 8.02136C50.8489 20.868 34.943 58.656 2.50483 116.999C0.816373 119.445 -0.0599792 122.361 -4.85156e-05 125.333C-4.85156e-05 130.033 12.5243 144.133 19.3501 144.133C21.4676 144.397 23.6174 144.139 25.6123 143.381C39.2428 138.418 53.573 135.648 68.0699 135.172C68.6983 135.204 69.3179 135.014 69.8212 134.637C70.3245 134.259 70.6798 133.717 70.8253 133.104C71.0383 132.328 71.1436 131.527 71.1384 130.723C71.0641 128.888 70.7266 127.073 70.1365 125.333C69.3354 122.286 67.5502 119.589 65.0585 117.662C62.5668 115.735 59.5085 114.687 56.3596 114.68C47.9057 114.68 40.9547 116.309 33.941 116.309C30.9352 116.309 29.4949 115.745 29.4949 114.179C32.2367 105.773 36.341 97.8765 41.6435 90.804C51.8809 87.8174 62.3567 85.7208 72.9544 84.5374C74.8106 84.3016 76.5022 83.3521 77.6711 81.89C78.8399 80.4279 79.3942 78.568 79.2166 76.704C79.2166 71.8787 76.336 66.364 73.3302 65.988C72.0151 65.988 63.0602 65.988 59.4907 65.988C57.7373 65.988 56.297 65.1107 56.297 63.168C62.9228 51.1859 70.2628 39.6134 78.2773 28.5134C80.2186 25.6934 85.7919 25.0667 93.1187 25.0667C97.4396 25.0667 106.77 25.6307 111.905 25.6307C113.292 24.6935 114.404 23.405 115.131 21.8967C115.857 20.3884 116.17 18.7143 116.038 17.0454C115.913 10.528 111.78 2.88269 106.457 2.88269Z" fill="#F42D7E"/>
<path d="M137.768 122.2C136.641 122.2 135.952 123.767 135.952 125.584C135.918 125.812 135.918 126.045 135.952 126.273L138.707 122.701C138.443 122.455 138.119 122.282 137.768 122.2ZM70.1363 125.333C70.0483 126.752 70.0483 128.176 70.1363 129.595C70.1306 130.845 70.3866 132.083 70.8878 133.229C71.1007 132.454 71.2061 131.652 71.2009 130.848C71.1184 128.967 70.7597 127.109 70.1363 125.333Z" fill="#F42D7E"/>
<path d="M260.069 50.1333C258.301 49.9605 256.524 50.3448 254.986 51.2325C253.448 52.1201 252.225 53.4667 251.489 55.084C248.421 62.416 241.094 80.1506 232.327 100.392C223.56 116.309 211.349 126.085 205.963 126.085C205.579 126.098 205.196 126.027 204.842 125.876C204.488 125.725 204.171 125.498 203.914 125.211C203.658 124.924 203.467 124.584 203.356 124.216C203.244 123.847 203.215 123.458 203.27 123.077C203.904 118.84 205.512 114.807 207.967 111.296C216.171 97.196 236.46 71.3773 236.46 63.6693C236.46 59.9093 230.198 58.1546 223.936 58.1546C217.674 58.1546 212.601 59.5333 211.411 62.604L209.282 67.868C209.116 66.1486 208.494 64.5047 207.482 63.1057C206.469 61.7068 205.102 60.6034 203.521 59.9093C201.78 57.0186 199.317 54.6316 196.375 52.9833C193.432 51.335 190.111 50.4824 186.738 50.5093C172.022 50.5093 156.054 64.9226 156.054 79.9C156.054 82.0933 156.054 84.976 156.429 88.2973C150.292 95.316 144.03 102.836 141.525 105.969C134.324 114.179 127.498 122.325 125.745 123.955C124.642 125.271 123.113 126.158 121.424 126.461C120.359 126.461 119.482 125.584 119.482 123.453C119.654 120.626 120.311 117.849 121.424 115.244C125.797 105.593 131.282 96.486 137.768 88.1093C139.208 86.345 139.964 84.1199 139.897 81.8426C139.897 75.576 132.383 70.6253 125.745 70.0613C126.541 69.3708 127.19 68.5265 127.653 67.5789C128.116 66.6313 128.383 65.5999 128.437 64.5466C128.437 59.22 122.175 54.3946 118.042 52.7653C117.076 52.3302 116.033 52.0957 114.974 52.076C101.76 52.076 73.3927 99.076 70.3242 125.02C70.8626 126.809 71.1368 128.667 71.1383 130.535C71.1435 131.339 71.0382 132.14 70.8252 132.916C72.3103 135.656 74.4957 137.953 77.1582 139.572C79.8208 141.19 82.8649 142.072 85.9797 142.128C91.3652 142.128 100.132 132.164 107.146 125.396C107.647 137.177 113.032 141.439 118.418 141.439C123.803 141.439 129.189 134.733 136.015 126.085C135.98 125.857 135.98 125.624 136.015 125.396C136.015 123.579 136.703 122.012 137.831 122.012C138.204 122.084 138.551 122.257 138.833 122.513L145.971 112.8C149.666 107.787 153.423 102.711 156.93 97.8226C157.682 106.847 158.496 116.623 158.496 121.323C158.496 126.023 156.555 131.6 150.793 131.6C145.032 131.6 140.774 125.02 138.582 123.015L135.827 126.587C135.844 127.264 136.015 127.928 136.328 128.529C139.39 132.983 143.409 136.695 148.09 139.395C152.77 142.095 157.994 143.713 163.38 144.133C169.956 144.133 174.965 140.373 174.965 130.409C174.965 117.563 173.4 104.904 173.4 91.4933C173.4 85.9786 178.723 76.892 182.856 76.892C184.108 76.892 184.484 77.5813 184.484 78.6466C183.301 82.909 181.858 87.0947 180.163 91.18C180.163 94.6266 186.989 100.643 190.746 100.643C191.252 100.681 191.756 100.547 192.177 100.262C192.597 99.9779 192.909 99.56 193.063 99.076C196.034 89.9894 200.593 81.5024 206.527 74.0093C200.265 90.052 189.682 116.56 189.682 132.289C189.682 138.869 192.562 141.564 197.008 141.564C205.636 140.036 213.553 135.8 219.615 129.469C212.038 146.264 204.398 162.933 198.073 175.467C197.914 175.998 197.809 176.544 197.76 177.096C197.76 181.545 205.462 186.935 209.595 187.624C209.595 187.624 212.038 187.624 213.353 184.052C224.706 150.935 239.525 119.112 257.564 89.112C257.676 88.7773 257.87 88.4758 258.127 88.2346C263.137 80.0253 267.771 72.8813 271.904 66.552C272.708 65.275 273.142 63.7997 273.156 62.2906C272.608 59.1086 271.031 56.195 268.666 53.9983C266.301 51.8017 263.28 50.4436 260.069 50.1333ZM113.22 89.7386C110.903 96.0053 95.6235 122.325 87.6079 128.968C86.7647 129.583 85.7675 129.952 84.7273 130.033C83.6627 130.033 82.9112 129.344 82.9112 127.715C82.9112 118.252 104.578 84.1613 110.527 84.1613C111.391 84.2563 112.185 84.6802 112.745 85.3453C113.304 86.0104 113.587 86.8655 113.533 87.7333C113.57 88.4163 113.464 89.0995 113.22 89.7386Z" fill="#F42D7E"/>
<path d="M137.769 122.2C136.641 122.2 135.952 123.767 135.952 125.584C135.918 125.812 135.918 126.045 135.952 126.273L138.708 122.701C138.444 122.455 138.12 122.282 137.769 122.2Z" fill="#F42D7E"/>
<path d="M257.563 89.2373L258.127 88.36C257.869 88.6012 257.676 88.9027 257.563 89.2373Z" fill="#F42D7E"/>
<path d="M379.739 16.4187C379.739 8.20933 360.013 6.58 357.508 4.82533C354.89 2.22897 351.511 0.538228 347.865 0C344.107 0 341.039 3.76 335.34 10.904C313.11 39.6053 294.323 63.8573 275.536 88.7987C268.898 88.4853 263.012 87.7333 260.131 87.7333C259.487 87.7023 258.857 87.9276 258.378 88.36C258.12 88.6012 257.927 88.9027 257.814 89.2373C257.743 89.61 257.743 89.9927 257.814 90.3653C257.593 93.007 258.159 95.6551 259.441 97.9751C260.722 100.295 262.663 102.183 265.016 103.4C259.818 110.356 254.621 117.312 249.423 124.644C248.551 125.63 247.985 126.85 247.795 128.153C247.795 133.856 255.685 144.071 261.947 144.071C263.889 144.071 264.452 142.629 265.517 141.376C271.779 133.167 285.243 110.356 292.069 108.413C295.638 107.285 317.681 104.653 318.746 104.653C321.626 104.653 322.691 105.155 323.004 106.032C317.265 122.75 313.933 140.2 313.11 157.857C313.11 174.652 317.931 188 333.336 188C336.938 188.04 340.457 186.915 343.368 184.792C346.279 182.669 348.427 179.662 349.493 176.219C349.532 175.704 349.415 175.19 349.159 174.743C348.902 174.296 348.516 173.937 348.053 173.712C339.599 166.255 336.217 154.912 336.217 140.749C336.217 101.645 363.082 45.308 378.487 20.304C379.276 19.16 379.712 17.8087 379.739 16.4187ZM326.385 88.7987C320.929 88.8541 315.473 88.624 310.041 88.1093C308.1 87.7333 307.348 87.044 307.348 86.1667C315.087 75.1331 323.988 64.9644 333.9 55.836C334.401 55.836 334.401 56.5253 334.401 57.7787L326.385 88.7987Z" fill="#F42D7E"/>
<path d="M404.287 46.1853C404.485 42.2405 403.48 38.3286 401.406 34.968C400.901 34.1366 400.541 33.2254 400.342 32.2733C400.342 29.0773 412.49 26.7587 415.371 26.7587C422.009 26.7587 428.271 30.1427 428.271 41.924C428.271 60.0973 369.344 141.063 359.387 141.063C355.254 141.063 344.17 137.867 344.17 129.845C344.17 117.312 359.575 51.1987 375.481 51.1987C379.99 51.1987 389.446 56.3373 389.446 61.9147C389.446 65.1107 357.571 104.152 357.571 128.78C357.571 129.156 357.571 129.281 357.947 129.281C362.33 129.281 404.287 67.4293 404.287 46.1853Z" fill="#F42D7E"/>
<path d="M436.162 122.2V122.827V123.453H435.786V122.764C435.786 122.764 434.972 122.764 434.721 123.391C434.539 123.596 434.391 123.828 434.283 124.08C434.283 124.08 433.281 124.393 433.281 124.644C433.281 124.895 432.342 124.644 432.342 124.644V125.521C432.342 125.521 433.532 125.521 433.657 125.083C433.927 125.118 434.201 125.118 434.471 125.083C435.194 124.315 435.864 123.498 436.475 122.639C436.475 122.639 436.287 122.263 436.162 122.2ZM447.997 27.824C440.984 27.824 433.657 38.164 433.657 44.4306C433.657 50.6973 444.616 55.836 450.878 55.836C455.7 55.836 462.15 45.12 462.15 40.4826C461.595 37.0704 459.887 33.9519 457.311 31.648C454.735 29.3441 451.448 27.9943 447.997 27.824Z" fill="#F42D7E"/>
<path d="M575.308 72.944C574.807 72.944 574.431 73.32 573.93 74.0093C571.738 77.08 564.036 86.5426 558.713 92.8093C556.749 95.5939 554.245 97.9552 551.352 99.753C548.458 101.551 545.233 102.748 541.868 103.275H541.492C547.151 94.698 551.381 85.2587 554.016 75.3253C553.604 71.4902 551.803 67.9388 548.953 65.3413C546.104 62.7437 542.403 61.2797 538.549 61.2253C533.915 58.4053 531.222 52.5773 527.089 52.5773C521.829 52.5773 514.565 59.22 507.676 69.0586C507.71 68.7672 507.71 68.4728 507.676 68.1813C507.58 66.4189 506.996 64.7181 505.989 63.2685C504.983 61.8189 503.594 60.6776 501.978 59.972C500.225 57.0732 497.753 54.678 494.801 53.0197C491.849 51.3614 488.518 50.4965 485.132 50.5093C470.416 50.5093 454.51 64.9226 454.51 79.9C454.51 82.0306 454.51 84.8506 454.823 88.0466C449.062 95.1906 442.737 102.773 439.982 105.969C434.465 112.94 428.161 119.248 421.195 124.769C420.837 125.068 420.404 125.263 419.943 125.333C418.878 125.333 418.315 124.08 418.315 122.451C418.315 118.879 430.15 96.444 443.363 76.8293C444.139 75.5201 444.549 74.0271 444.553 72.5053C444.553 66.2386 436.538 60.5986 431.152 60.5986C429.376 60.4217 427.589 60.8035 426.04 61.6909C424.491 62.5783 423.257 63.927 422.51 65.5493C416.248 82.344 403.16 107.285 403.16 118.753C403.16 126.9 409.422 140.812 417.062 140.812C418.628 140.812 419.317 140.311 420.882 138.869C425.371 135.185 429.167 130.729 432.091 125.709V124.832C432.091 123.391 433.845 122.827 434.722 122.701L435.661 123.391H436.037V122.764C436.037 122.764 436.538 122.764 436.725 123.077C439.543 119.505 442.174 115.996 444.178 113.176C447.935 108.1 451.755 102.836 455.324 97.8226C456.013 107.035 456.952 116.623 456.952 121.699C456.952 126.775 455.324 131.6 449.438 131.6C443.551 131.6 439.105 124.519 436.913 122.827L434.346 126.023C434.319 126.892 434.513 127.755 434.909 128.529C437.979 132.977 441.999 136.684 446.678 139.383C451.357 142.082 456.578 143.705 461.962 144.133C468.6 144.133 473.61 140.373 473.61 130.409C473.61 117.563 471.982 104.904 471.982 91.4933C471.982 85.9786 477.367 76.892 481.5 76.892C482.753 76.892 483.066 77.5813 483.066 78.6466C481.901 82.9068 480.479 87.0922 478.807 91.18C478.807 94.6266 485.571 100.643 489.391 100.643C489.895 100.67 490.394 100.531 490.812 100.249C491.23 99.9657 491.545 99.554 491.707 99.076C493.692 92.6616 496.581 86.5634 500.287 80.9653C492.342 94.3272 487.565 109.334 486.322 124.832C486.322 135.485 490.768 142.817 502.228 142.817C511.183 142.817 524.083 127.84 534.854 111.797C536.143 112.118 537.473 112.244 538.799 112.173C543.923 111.854 548.898 110.324 553.317 107.71C557.736 105.096 561.474 101.471 564.224 97.1333C569.421 89.864 574.807 81.8426 578 76.6413C578 76.328 576.936 72.944 575.308 72.944ZM524.083 103.463C517.32 116.999 505.296 132.728 500.662 132.728C499.598 132.728 498.846 132.728 498.846 131.349C498.846 110.857 517.633 85.6653 525.523 85.6653H526.024C523.948 89.3461 522.788 93.4731 522.643 97.6973C522.654 99.7068 523.148 101.684 524.083 103.463Z" fill="#F42D7E"/>
<path d="M435.786 123.391C434.909 123.391 434.033 124.644 433.845 126.148C433.845 124.644 434.784 123.391 435.723 123.391H435.786Z" fill="#F42D7E"/>
<path d="M436.225 122.2V123.453H435.849L434.909 122.764C434.033 122.764 432.279 123.453 432.279 124.895V125.772C432.279 125.772 433.469 125.772 433.594 125.333C433.865 125.369 434.138 125.369 434.408 125.333C435.19 124.562 435.902 123.723 436.538 122.827C436.538 122.827 436.35 122.263 436.225 122.2Z" fill="#F42D7E"/>
</g>
<defs>
<clipPath id="clip0_301_48">
<rect width="578" height="188" fill="white"/>
</clipPath>
</defs>
</svg>
